<svg width="32" height="32" viewBox="0 0 32 32" fill="none" xmlns="http://www.w3.org/2000/svg">
<path d="M20.5953 24.7502C22.6931 24.7502 24.3997 23.0437 24.3997 20.9459C24.3997 20.3789 24.3997 20.3325 18.9895 18.5997C18.2192 18.3525 17.3995 18.7267 17.0858 19.4707C17.0699 19.5085 17.0553 19.5464 17.0406 19.5842C16.0891 19.1716 15.2236 18.5979 14.4613 17.8746C14.4613 17.874 14.4607 17.8734 14.4601 17.8728C14.4595 17.8728 14.4595 17.8722 14.4595 17.8722C14.3453 17.7648 14.2355 17.6549 14.1281 17.5408C14.1281 17.5408 14.1274 17.5408 14.1274 17.5402C14.1268 17.5396 14.1262 17.5396 14.1262 17.5389C13.4133 16.7882 12.8304 15.9062 12.4172 14.959C12.4551 14.9443 12.4935 14.9297 12.5308 14.9138C13.2742 14.6007 13.6477 13.7828 13.4005 13.0107C11.6677 7.60059 11.6213 7.60059 11.0543 7.60059C8.95654 7.60059 7.25 9.30713 7.25 11.4049C7.25 18.7633 13.2369 24.7502 20.5953 24.7502ZM10.6838 8.87744C10.9091 9.44995 11.3949 10.8458 12.2103 13.3916C12.2579 13.5405 12.1859 13.7029 12.0474 13.7609C11.8655 13.8372 11.6744 13.8921 11.4803 13.9244C11.2985 13.9543 11.1398 14.0636 11.0458 14.2217C10.9512 14.3804 10.9323 14.572 10.9927 14.746C11.4608 16.0948 12.2305 17.3577 13.2186 18.3983C13.3425 18.5302 13.4701 18.6577 13.6019 18.7816C14.6572 19.7838 15.8859 20.5327 17.2549 21.0082C17.4288 21.0692 17.6217 21.0491 17.7798 20.9551C17.9385 20.8605 18.0471 20.7006 18.077 20.5187C18.1082 20.3258 18.1631 20.1354 18.2388 19.9541C18.2974 19.8143 18.4591 19.7429 18.6086 19.7899C21.1544 20.6053 22.5503 21.0912 23.1228 21.3164C22.9427 22.5499 21.8777 23.5002 20.5953 23.5002C13.926 23.5002 8.5 18.0742 8.5 11.4049C8.5 10.1226 9.45032 9.0575 10.6838 8.87744Z" fill="black"/>
<path d="M15.4863 7.25C15.1409 7.25 14.8613 7.52954 14.8613 7.875C14.8613 8.22046 15.1409 8.5 15.4863 8.5C19.9047 8.5 23.4996 12.095 23.4996 16.5133C23.4996 16.8588 23.7792 17.1383 24.1246 17.1383C24.4701 17.1383 24.7496 16.8588 24.7496 16.5133C24.7496 11.4053 20.5944 7.25 15.4863 7.25Z" fill="black"/>
<path d="M21.4666 17.1384C21.812 17.1384 22.0916 16.8589 22.0916 16.5134C22.0916 12.8715 19.1283 9.9082 15.4863 9.9082C15.1409 9.9082 14.8613 10.1877 14.8613 10.5332C14.8613 10.8787 15.1409 11.1582 15.4863 11.1582C18.4392 11.1582 20.8416 13.5605 20.8416 16.5134C20.8416 16.8589 21.1211 17.1384 21.4666 17.1384Z" fill="black"/>
<path d="M15.4863 12.5654C15.1409 12.5654 14.8613 12.845 14.8613 13.1904C14.8613 13.5359 15.1409 13.8154 15.4863 13.8154C16.9738 13.8154 18.1841 15.0258 18.1841 16.5132C18.1841 16.8586 18.4636 17.1382 18.8091 17.1382C19.1545 17.1382 19.4341 16.8586 19.4341 16.5132C19.4341 14.3367 17.6628 12.5654 15.4863 12.5654Z" fill="black"/>
</svg>
