<svg width="19" height="19" viewBox="0 0 19 19" fill="none" xmlns="http://www.w3.org/2000/svg">
<path d="M9.0918 1.30762C9.29106 1.02614 9.70894 1.02614 9.9082 1.30762L12.334 4.73438C12.6512 5.18247 13.1077 5.51452 13.6318 5.67773L17.6416 6.92578C17.9706 7.02851 18.0996 7.42577 17.8936 7.70215L15.3838 11.0684C15.0556 11.5085 14.8809 12.0448 14.8877 12.5938L14.9395 16.793C14.9435 17.1377 14.6059 17.383 14.2793 17.2725L10.3018 15.9258C9.84686 15.7718 9.35874 15.7527 8.89551 15.8682L8.69824 15.9258L4.7207 17.2725C4.39413 17.383 4.05648 17.1377 4.06055 16.793L4.1123 12.5938C4.11906 12.0448 3.94435 11.5085 3.61621 11.0684L1.10645 7.70215C0.900404 7.42578 1.02942 7.02851 1.3584 6.92578L5.36816 5.67773C5.89235 5.51452 6.34881 5.18247 6.66602 4.73438L9.0918 1.30762Z" fill="#FAD062" stroke="#F58442" stroke-width="2"/>
</svg>
